<?xml version="1.0" encoding="UTF-8"?>
<svg width="1120" height="760" viewBox="0 0 1120 760" fill="none" xmlns="http://www.w3.org/2000/svg" role="img" aria-labelledby="title desc">
  <title id="title">sungjin Codex activity</title>
  <desc id="desc">A profile card showing local Codex token activity, session streaks, and top tools.</desc>
  <defs>
    <linearGradient id="panel" x1="72" y1="64" x2="1048" y2="696" gradientUnits="userSpaceOnUse">
      <stop stop-color="#191919"/>
      <stop offset="1" stop-color="#101112"/>
    </linearGradient>
    <filter id="softShadow" x="45" y="42" width="1030" height="690" color-interpolation-filters="sRGB" filterUnits="userSpaceOnUse">
      <feDropShadow dx="0" dy="18" stdDeviation="28" flood-color="#000000" flood-opacity="0.38"/>
    </filter>
    <style>
      .title { font: 800 38px ui-sans-serif, -apple-system, BlinkMacSystemFont, "Segoe UI", sans-serif; fill: #f7f8fb; }
      .meta { font: 600 16px ui-sans-serif, -apple-system, BlinkMacSystemFont, "Segoe UI", sans-serif; fill: #9ba6b8; }
      .label { font: 800 19px ui-sans-serif, -apple-system, BlinkMacSystemFont, "Segoe UI", sans-serif; fill: #f3f6fb; }
      .small { font: 650 14px ui-sans-serif, -apple-system, BlinkMacSystemFont, "Segoe UI", sans-serif; fill: #9ba6b8; }
      .value { font: 850 20px ui-sans-serif, -apple-system, BlinkMacSystemFont, "Segoe UI", sans-serif; fill: #ffffff; }
      .caption { font: 650 13px ui-sans-serif, -apple-system, BlinkMacSystemFont, "Segoe UI", sans-serif; fill: #8290a4; }
      .tool { font: 800 18px ui-sans-serif, -apple-system, BlinkMacSystemFont, "Segoe UI", sans-serif; fill: #f7f8fb; }
    </style>
  </defs>

  <rect width="1120" height="760" fill="#0b0f12"/>
  <g filter="url(#softShadow)">
    <rect x="56" y="56" width="1008" height="648" rx="22" fill="url(#panel)" stroke="#2a2d31"/>
  </g>

  <circle cx="560" cy="130" r="52" fill="#de72bd"/>
  <text x="560" y="148" text-anchor="middle" font-size="36" font-family="ui-sans-serif, -apple-system, BlinkMacSystemFont, Segoe UI, sans-serif" font-weight="850" fill="#ffffff">SJ</text>
  <text x="560" y="214" text-anchor="middle" class="title">sungjin</text>
  <text x="560" y="244" text-anchor="middle" class="meta">@kimsj1686 · local Codex CLI activity · local Codex DB</text>

  
  <rect x="104" y="278" width="912" height="80" rx="16" fill="#131516" stroke="#2b2f34"/>
  
  <text x="195.2" y="312" text-anchor="middle" class="value">1589.4만</text>
  <text x="195.2" y="337" text-anchor="middle" class="small">누적 토큰</text><line x1="286.4" y1="294" x2="286.4" y2="342" stroke="#2a2d31"/>
  <text x="377.59999999999997" y="312" text-anchor="middle" class="value">1090.2만</text>
  <text x="377.59999999999997" y="337" text-anchor="middle" class="small">최대 세션</text><line x1="468.8" y1="294" x2="468.8" y2="342" stroke="#2a2d31"/>
  <text x="560" y="312" text-anchor="middle" class="value">7회</text>
  <text x="560" y="337" text-anchor="middle" class="small">Codex 세션</text><line x1="651.2" y1="294" x2="651.2" y2="342" stroke="#2a2d31"/>
  <text x="742.4000000000001" y="312" text-anchor="middle" class="value">2일</text>
  <text x="742.4000000000001" y="337" text-anchor="middle" class="small">현재 연속</text><line x1="833.6" y1="294" x2="833.6" y2="342" stroke="#2a2d31"/>
  <text x="924.8000000000001" y="312" text-anchor="middle" class="value">2일</text>
  <text x="924.8000000000001" y="337" text-anchor="middle" class="small">최장 연속</text>

  <text x="104" y="395" class="label">로컬 Codex 토큰 활동</text>
  <text x="1016" y="395" text-anchor="end" class="small">최근 365일 · UTC · 갱신 2026-07-07</text>
  <rect x="104" y="418" width="14" height="14" rx="3" fill="#252627"><title>2025-07-13: 0</title></rect>
  <rect x="104" y="436" width="14" height="14" rx="3" fill="#252627"><title>2025-07-14: 0</title></rect>
  <rect x="104" y="454" width="14" height="14" rx="3" fill="#252627"><title>2025-07-15: 0</title></rect>
  <rect x="104" y="472" width="14" height="14" rx="3" fill="#252627"><title>2025-07-16: 0</title></rect>
  <rect x="104" y="490" width="14" height="14" rx="3" fill="#252627"><title>2025-07-17: 0</title></rect>
  <rect x="104" y="508" width="14" height="14" rx="3" fill="#252627"><title>2025-07-18: 0</title></rect>
  <rect x="104" y="526" width="14" height="14" rx="3" fill="#252627"><title>2025-07-19: 0</title></rect>
  <rect x="122" y="418" width="14" height="14" rx="3" fill="#252627"><title>2025-07-20: 0</title></rect>
  <rect x="122" y="436" width="14" height="14" rx="3" fill="#252627"><title>2025-07-21: 0</title></rect>
  <rect x="122" y="454" width="14" height="14" rx="3" fill="#252627"><title>2025-07-22: 0</title></rect>
  <rect x="122" y="472" width="14" height="14" rx="3" fill="#252627"><title>2025-07-23: 0</title></rect>
  <rect x="122" y="490" width="14" height="14" rx="3" fill="#252627"><title>2025-07-24: 0</title></rect>
  <rect x="122" y="508" width="14" height="14" rx="3" fill="#252627"><title>2025-07-25: 0</title></rect>
  <rect x="122" y="526" width="14" height="14" rx="3" fill="#252627"><title>2025-07-26: 0</title></rect>
  <rect x="140" y="418" width="14" height="14" rx="3" fill="#252627"><title>2025-07-27: 0</title></rect>
  <rect x="140" y="436" width="14" height="14" rx="3" fill="#252627"><title>2025-07-28: 0</title></rect>
  <rect x="140" y="454" width="14" height="14" rx="3" fill="#252627"><title>2025-07-29: 0</title></rect>
  <rect x="140" y="472" width="14" height="14" rx="3" fill="#252627"><title>2025-07-30: 0</title></rect>
  <rect x="140" y="490" width="14" height="14" rx="3" fill="#252627"><title>2025-07-31: 0</title></rect>
  <rect x="140" y="508" width="14" height="14" rx="3" fill="#252627"><title>2025-08-01: 0</title></rect>
  <rect x="140" y="526" width="14" height="14" rx="3" fill="#252627"><title>2025-08-02: 0</title></rect>
  <rect x="158" y="418" width="14" height="14" rx="3" fill="#252627"><title>2025-08-03: 0</title></rect>
  <rect x="158" y="436" width="14" height="14" rx="3" fill="#252627"><title>2025-08-04: 0</title></rect>
  <rect x="158" y="454" width="14" height="14" rx="3" fill="#252627"><title>2025-08-05: 0</title></rect>
  <rect x="158" y="472" width="14" height="14" rx="3" fill="#252627"><title>2025-08-06: 0</title></rect>
  <rect x="158" y="490" width="14" height="14" rx="3" fill="#252627"><title>2025-08-07: 0</title></rect>
  <rect x="158" y="508" width="14" height="14" rx="3" fill="#252627"><title>2025-08-08: 0</title></rect>
  <rect x="158" y="526" width="14" height="14" rx="3" fill="#252627"><title>2025-08-09: 0</title></rect>
  <rect x="176" y="418" width="14" height="14" rx="3" fill="#252627"><title>2025-08-10: 0</title></rect>
  <rect x="176" y="436" width="14" height="14" rx="3" fill="#252627"><title>2025-08-11: 0</title></rect>
  <rect x="176" y="454" width="14" height="14" rx="3" fill="#252627"><title>2025-08-12: 0</title></rect>
  <rect x="176" y="472" width="14" height="14" rx="3" fill="#252627"><title>2025-08-13: 0</title></rect>
  <rect x="176" y="490" width="14" height="14" rx="3" fill="#252627"><title>2025-08-14: 0</title></rect>
  <rect x="176" y="508" width="14" height="14" rx="3" fill="#252627"><title>2025-08-15: 0</title></rect>
  <rect x="176" y="526" width="14" height="14" rx="3" fill="#252627"><title>2025-08-16: 0</title></rect>
  <rect x="194" y="418" width="14" height="14" rx="3" fill="#252627"><title>2025-08-17: 0</title></rect>
  <rect x="194" y="436" width="14" height="14" rx="3" fill="#252627"><title>2025-08-18: 0</title></rect>
  <rect x="194" y="454" width="14" height="14" rx="3" fill="#252627"><title>2025-08-19: 0</title></rect>
  <rect x="194" y="472" width="14" height="14" rx="3" fill="#252627"><title>2025-08-20: 0</title></rect>
  <rect x="194" y="490" width="14" height="14" rx="3" fill="#252627"><title>2025-08-21: 0</title></rect>
  <rect x="194" y="508" width="14" height="14" rx="3" fill="#252627"><title>2025-08-22: 0</title></rect>
  <rect x="194" y="526" width="14" height="14" rx="3" fill="#252627"><title>2025-08-23: 0</title></rect>
  <rect x="212" y="418" width="14" height="14" rx="3" fill="#252627"><title>2025-08-24: 0</title></rect>
  <rect x="212" y="436" width="14" height="14" rx="3" fill="#252627"><title>2025-08-25: 0</title></rect>
  <rect x="212" y="454" width="14" height="14" rx="3" fill="#252627"><title>2025-08-26: 0</title></rect>
  <rect x="212" y="472" width="14" height="14" rx="3" fill="#252627"><title>2025-08-27: 0</title></rect>
  <rect x="212" y="490" width="14" height="14" rx="3" fill="#252627"><title>2025-08-28: 0</title></rect>
  <rect x="212" y="508" width="14" height="14" rx="3" fill="#252627"><title>2025-08-29: 0</title></rect>
  <rect x="212" y="526" width="14" height="14" rx="3" fill="#252627"><title>2025-08-30: 0</title></rect>
  <rect x="230" y="418" width="14" height="14" rx="3" fill="#252627"><title>2025-08-31: 0</title></rect>
  <rect x="230" y="436" width="14" height="14" rx="3" fill="#252627"><title>2025-09-01: 0</title></rect>
  <rect x="230" y="454" width="14" height="14" rx="3" fill="#252627"><title>2025-09-02: 0</title></rect>
  <rect x="230" y="472" width="14" height="14" rx="3" fill="#252627"><title>2025-09-03: 0</title></rect>
  <rect x="230" y="490" width="14" height="14" rx="3" fill="#252627"><title>2025-09-04: 0</title></rect>
  <rect x="230" y="508" width="14" height="14" rx="3" fill="#252627"><title>2025-09-05: 0</title></rect>
  <rect x="230" y="526" width="14" height="14" rx="3" fill="#252627"><title>2025-09-06: 0</title></rect>
  <rect x="248" y="418" width="14" height="14" rx="3" fill="#252627"><title>2025-09-07: 0</title></rect>
  <rect x="248" y="436" width="14" height="14" rx="3" fill="#252627"><title>2025-09-08: 0</title></rect>
  <rect x="248" y="454" width="14" height="14" rx="3" fill="#252627"><title>2025-09-09: 0</title></rect>
  <rect x="248" y="472" width="14" height="14" rx="3" fill="#252627"><title>2025-09-10: 0</title></rect>
  <rect x="248" y="490" width="14" height="14" rx="3" fill="#252627"><title>2025-09-11: 0</title></rect>
  <rect x="248" y="508" width="14" height="14" rx="3" fill="#252627"><title>2025-09-12: 0</title></rect>
  <rect x="248" y="526" width="14" height="14" rx="3" fill="#252627"><title>2025-09-13: 0</title></rect>
  <rect x="266" y="418" width="14" height="14" rx="3" fill="#252627"><title>2025-09-14: 0</title></rect>
  <rect x="266" y="436" width="14" height="14" rx="3" fill="#252627"><title>2025-09-15: 0</title></rect>
  <rect x="266" y="454" width="14" height="14" rx="3" fill="#252627"><title>2025-09-16: 0</title></rect>
  <rect x="266" y="472" width="14" height="14" rx="3" fill="#252627"><title>2025-09-17: 0</title></rect>
  <rect x="266" y="490" width="14" height="14" rx="3" fill="#252627"><title>2025-09-18: 0</title></rect>
  <rect x="266" y="508" width="14" height="14" rx="3" fill="#252627"><title>2025-09-19: 0</title></rect>
  <rect x="266" y="526" width="14" height="14" rx="3" fill="#252627"><title>2025-09-20: 0</title></rect>
  <rect x="284" y="418" width="14" height="14" rx="3" fill="#252627"><title>2025-09-21: 0</title></rect>
  <rect x="284" y="436" width="14" height="14" rx="3" fill="#252627"><title>2025-09-22: 0</title></rect>
  <rect x="284" y="454" width="14" height="14" rx="3" fill="#252627"><title>2025-09-23: 0</title></rect>
  <rect x="284" y="472" width="14" height="14" rx="3" fill="#252627"><title>2025-09-24: 0</title></rect>
  <rect x="284" y="490" width="14" height="14" rx="3" fill="#252627"><title>2025-09-25: 0</title></rect>
  <rect x="284" y="508" width="14" height="14" rx="3" fill="#252627"><title>2025-09-26: 0</title></rect>
  <rect x="284" y="526" width="14" height="14" rx="3" fill="#252627"><title>2025-09-27: 0</title></rect>
  <rect x="302" y="418" width="14" height="14" rx="3" fill="#252627"><title>2025-09-28: 0</title></rect>
  <rect x="302" y="436" width="14" height="14" rx="3" fill="#252627"><title>2025-09-29: 0</title></rect>
  <rect x="302" y="454" width="14" height="14" rx="3" fill="#252627"><title>2025-09-30: 0</title></rect>
  <rect x="302" y="472" width="14" height="14" rx="3" fill="#252627"><title>2025-10-01: 0</title></rect>
  <rect x="302" y="490" width="14" height="14" rx="3" fill="#252627"><title>2025-10-02: 0</title></rect>
  <rect x="302" y="508" width="14" height="14" rx="3" fill="#252627"><title>2025-10-03: 0</title></rect>
  <rect x="302" y="526" width="14" height="14" rx="3" fill="#252627"><title>2025-10-04: 0</title></rect>
  <rect x="320" y="418" width="14" height="14" rx="3" fill="#252627"><title>2025-10-05: 0</title></rect>
  <rect x="320" y="436" width="14" height="14" rx="3" fill="#252627"><title>2025-10-06: 0</title></rect>
  <rect x="320" y="454" width="14" height="14" rx="3" fill="#252627"><title>2025-10-07: 0</title></rect>
  <rect x="320" y="472" width="14" height="14" rx="3" fill="#252627"><title>2025-10-08: 0</title></rect>
  <rect x="320" y="490" width="14" height="14" rx="3" fill="#252627"><title>2025-10-09: 0</title></rect>
  <rect x="320" y="508" width="14" height="14" rx="3" fill="#252627"><title>2025-10-10: 0</title></rect>
  <rect x="320" y="526" width="14" height="14" rx="3" fill="#252627"><title>2025-10-11: 0</title></rect>
  <rect x="338" y="418" width="14" height="14" rx="3" fill="#252627"><title>2025-10-12: 0</title></rect>
  <rect x="338" y="436" width="14" height="14" rx="3" fill="#252627"><title>2025-10-13: 0</title></rect>
  <rect x="338" y="454" width="14" height="14" rx="3" fill="#252627"><title>2025-10-14: 0</title></rect>
  <rect x="338" y="472" width="14" height="14" rx="3" fill="#252627"><title>2025-10-15: 0</title></rect>
  <rect x="338" y="490" width="14" height="14" rx="3" fill="#252627"><title>2025-10-16: 0</title></rect>
  <rect x="338" y="508" width="14" height="14" rx="3" fill="#252627"><title>2025-10-17: 0</title></rect>
  <rect x="338" y="526" width="14" height="14" rx="3" fill="#252627"><title>2025-10-18: 0</title></rect>
  <rect x="356" y="418" width="14" height="14" rx="3" fill="#252627"><title>2025-10-19: 0</title></rect>
  <rect x="356" y="436" width="14" height="14" rx="3" fill="#252627"><title>2025-10-20: 0</title></rect>
  <rect x="356" y="454" width="14" height="14" rx="3" fill="#252627"><title>2025-10-21: 0</title></rect>
  <rect x="356" y="472" width="14" height="14" rx="3" fill="#252627"><title>2025-10-22: 0</title></rect>
  <rect x="356" y="490" width="14" height="14" rx="3" fill="#252627"><title>2025-10-23: 0</title></rect>
  <rect x="356" y="508" width="14" height="14" rx="3" fill="#252627"><title>2025-10-24: 0</title></rect>
  <rect x="356" y="526" width="14" height="14" rx="3" fill="#252627"><title>2025-10-25: 0</title></rect>
  <rect x="374" y="418" width="14" height="14" rx="3" fill="#252627"><title>2025-10-26: 0</title></rect>
  <rect x="374" y="436" width="14" height="14" rx="3" fill="#252627"><title>2025-10-27: 0</title></rect>
  <rect x="374" y="454" width="14" height="14" rx="3" fill="#252627"><title>2025-10-28: 0</title></rect>
  <rect x="374" y="472" width="14" height="14" rx="3" fill="#252627"><title>2025-10-29: 0</title></rect>
  <rect x="374" y="490" width="14" height="14" rx="3" fill="#252627"><title>2025-10-30: 0</title></rect>
  <rect x="374" y="508" width="14" height="14" rx="3" fill="#252627"><title>2025-10-31: 0</title></rect>
  <rect x="374" y="526" width="14" height="14" rx="3" fill="#252627"><title>2025-11-01: 0</title></rect>
  <rect x="392" y="418" width="14" height="14" rx="3" fill="#252627"><title>2025-11-02: 0</title></rect>
  <rect x="392" y="436" width="14" height="14" rx="3" fill="#252627"><title>2025-11-03: 0</title></rect>
  <rect x="392" y="454" width="14" height="14" rx="3" fill="#252627"><title>2025-11-04: 0</title></rect>
  <rect x="392" y="472" width="14" height="14" rx="3" fill="#252627"><title>2025-11-05: 0</title></rect>
  <rect x="392" y="490" width="14" height="14" rx="3" fill="#252627"><title>2025-11-06: 0</title></rect>
  <rect x="392" y="508" width="14" height="14" rx="3" fill="#252627"><title>2025-11-07: 0</title></rect>
  <rect x="392" y="526" width="14" height="14" rx="3" fill="#252627"><title>2025-11-08: 0</title></rect>
  <rect x="410" y="418" width="14" height="14" rx="3" fill="#252627"><title>2025-11-09: 0</title></rect>
  <rect x="410" y="436" width="14" height="14" rx="3" fill="#252627"><title>2025-11-10: 0</title></rect>
  <rect x="410" y="454" width="14" height="14" rx="3" fill="#252627"><title>2025-11-11: 0</title></rect>
  <rect x="410" y="472" width="14" height="14" rx="3" fill="#252627"><title>2025-11-12: 0</title></rect>
  <rect x="410" y="490" width="14" height="14" rx="3" fill="#252627"><title>2025-11-13: 0</title></rect>
  <rect x="410" y="508" width="14" height="14" rx="3" fill="#252627"><title>2025-11-14: 0</title></rect>
  <rect x="410" y="526" width="14" height="14" rx="3" fill="#252627"><title>2025-11-15: 0</title></rect>
  <rect x="428" y="418" width="14" height="14" rx="3" fill="#252627"><title>2025-11-16: 0</title></rect>
  <rect x="428" y="436" width="14" height="14" rx="3" fill="#252627"><title>2025-11-17: 0</title></rect>
  <rect x="428" y="454" width="14" height="14" rx="3" fill="#252627"><title>2025-11-18: 0</title></rect>
  <rect x="428" y="472" width="14" height="14" rx="3" fill="#252627"><title>2025-11-19: 0</title></rect>
  <rect x="428" y="490" width="14" height="14" rx="3" fill="#252627"><title>2025-11-20: 0</title></rect>
  <rect x="428" y="508" width="14" height="14" rx="3" fill="#252627"><title>2025-11-21: 0</title></rect>
  <rect x="428" y="526" width="14" height="14" rx="3" fill="#252627"><title>2025-11-22: 0</title></rect>
  <rect x="446" y="418" width="14" height="14" rx="3" fill="#252627"><title>2025-11-23: 0</title></rect>
  <rect x="446" y="436" width="14" height="14" rx="3" fill="#252627"><title>2025-11-24: 0</title></rect>
  <rect x="446" y="454" width="14" height="14" rx="3" fill="#252627"><title>2025-11-25: 0</title></rect>
  <rect x="446" y="472" width="14" height="14" rx="3" fill="#252627"><title>2025-11-26: 0</title></rect>
  <rect x="446" y="490" width="14" height="14" rx="3" fill="#252627"><title>2025-11-27: 0</title></rect>
  <rect x="446" y="508" width="14" height="14" rx="3" fill="#252627"><title>2025-11-28: 0</title></rect>
  <rect x="446" y="526" width="14" height="14" rx="3" fill="#252627"><title>2025-11-29: 0</title></rect>
  <rect x="464" y="418" width="14" height="14" rx="3" fill="#252627"><title>2025-11-30: 0</title></rect>
  <rect x="464" y="436" width="14" height="14" rx="3" fill="#252627"><title>2025-12-01: 0</title></rect>
  <rect x="464" y="454" width="14" height="14" rx="3" fill="#252627"><title>2025-12-02: 0</title></rect>
  <rect x="464" y="472" width="14" height="14" rx="3" fill="#252627"><title>2025-12-03: 0</title></rect>
  <rect x="464" y="490" width="14" height="14" rx="3" fill="#252627"><title>2025-12-04: 0</title></rect>
  <rect x="464" y="508" width="14" height="14" rx="3" fill="#252627"><title>2025-12-05: 0</title></rect>
  <rect x="464" y="526" width="14" height="14" rx="3" fill="#252627"><title>2025-12-06: 0</title></rect>
  <rect x="482" y="418" width="14" height="14" rx="3" fill="#252627"><title>2025-12-07: 0</title></rect>
  <rect x="482" y="436" width="14" height="14" rx="3" fill="#252627"><title>2025-12-08: 0</title></rect>
  <rect x="482" y="454" width="14" height="14" rx="3" fill="#252627"><title>2025-12-09: 0</title></rect>
  <rect x="482" y="472" width="14" height="14" rx="3" fill="#252627"><title>2025-12-10: 0</title></rect>
  <rect x="482" y="490" width="14" height="14" rx="3" fill="#252627"><title>2025-12-11: 0</title></rect>
  <rect x="482" y="508" width="14" height="14" rx="3" fill="#252627"><title>2025-12-12: 0</title></rect>
  <rect x="482" y="526" width="14" height="14" rx="3" fill="#252627"><title>2025-12-13: 0</title></rect>
  <rect x="500" y="418" width="14" height="14" rx="3" fill="#252627"><title>2025-12-14: 0</title></rect>
  <rect x="500" y="436" width="14" height="14" rx="3" fill="#252627"><title>2025-12-15: 0</title></rect>
  <rect x="500" y="454" width="14" height="14" rx="3" fill="#252627"><title>2025-12-16: 0</title></rect>
  <rect x="500" y="472" width="14" height="14" rx="3" fill="#252627"><title>2025-12-17: 0</title></rect>
  <rect x="500" y="490" width="14" height="14" rx="3" fill="#252627"><title>2025-12-18: 0</title></rect>
  <rect x="500" y="508" width="14" height="14" rx="3" fill="#252627"><title>2025-12-19: 0</title></rect>
  <rect x="500" y="526" width="14" height="14" rx="3" fill="#252627"><title>2025-12-20: 0</title></rect>
  <rect x="518" y="418" width="14" height="14" rx="3" fill="#252627"><title>2025-12-21: 0</title></rect>
  <rect x="518" y="436" width="14" height="14" rx="3" fill="#252627"><title>2025-12-22: 0</title></rect>
  <rect x="518" y="454" width="14" height="14" rx="3" fill="#252627"><title>2025-12-23: 0</title></rect>
  <rect x="518" y="472" width="14" height="14" rx="3" fill="#252627"><title>2025-12-24: 0</title></rect>
  <rect x="518" y="490" width="14" height="14" rx="3" fill="#252627"><title>2025-12-25: 0</title></rect>
  <rect x="518" y="508" width="14" height="14" rx="3" fill="#252627"><title>2025-12-26: 0</title></rect>
  <rect x="518" y="526" width="14" height="14" rx="3" fill="#252627"><title>2025-12-27: 0</title></rect>
  <rect x="536" y="418" width="14" height="14" rx="3" fill="#252627"><title>2025-12-28: 0</title></rect>
  <rect x="536" y="436" width="14" height="14" rx="3" fill="#252627"><title>2025-12-29: 0</title></rect>
  <rect x="536" y="454" width="14" height="14" rx="3" fill="#252627"><title>2025-12-30: 0</title></rect>
  <rect x="536" y="472" width="14" height="14" rx="3" fill="#252627"><title>2025-12-31: 0</title></rect>
  <rect x="536" y="490" width="14" height="14" rx="3" fill="#252627"><title>2026-01-01: 0</title></rect>
  <rect x="536" y="508" width="14" height="14" rx="3" fill="#252627"><title>2026-01-02: 0</title></rect>
  <rect x="536" y="526" width="14" height="14" rx="3" fill="#252627"><title>2026-01-03: 0</title></rect>
  <rect x="554" y="418" width="14" height="14" rx="3" fill="#252627"><title>2026-01-04: 0</title></rect>
  <rect x="554" y="436" width="14" height="14" rx="3" fill="#252627"><title>2026-01-05: 0</title></rect>
  <rect x="554" y="454" width="14" height="14" rx="3" fill="#252627"><title>2026-01-06: 0</title></rect>
  <rect x="554" y="472" width="14" height="14" rx="3" fill="#252627"><title>2026-01-07: 0</title></rect>
  <rect x="554" y="490" width="14" height="14" rx="3" fill="#252627"><title>2026-01-08: 0</title></rect>
  <rect x="554" y="508" width="14" height="14" rx="3" fill="#252627"><title>2026-01-09: 0</title></rect>
  <rect x="554" y="526" width="14" height="14" rx="3" fill="#252627"><title>2026-01-10: 0</title></rect>
  <rect x="572" y="418" width="14" height="14" rx="3" fill="#252627"><title>2026-01-11: 0</title></rect>
  <rect x="572" y="436" width="14" height="14" rx="3" fill="#252627"><title>2026-01-12: 0</title></rect>
  <rect x="572" y="454" width="14" height="14" rx="3" fill="#252627"><title>2026-01-13: 0</title></rect>
  <rect x="572" y="472" width="14" height="14" rx="3" fill="#252627"><title>2026-01-14: 0</title></rect>
  <rect x="572" y="490" width="14" height="14" rx="3" fill="#252627"><title>2026-01-15: 0</title></rect>
  <rect x="572" y="508" width="14" height="14" rx="3" fill="#252627"><title>2026-01-16: 0</title></rect>
  <rect x="572" y="526" width="14" height="14" rx="3" fill="#252627"><title>2026-01-17: 0</title></rect>
  <rect x="590" y="418" width="14" height="14" rx="3" fill="#252627"><title>2026-01-18: 0</title></rect>
  <rect x="590" y="436" width="14" height="14" rx="3" fill="#252627"><title>2026-01-19: 0</title></rect>
  <rect x="590" y="454" width="14" height="14" rx="3" fill="#252627"><title>2026-01-20: 0</title></rect>
  <rect x="590" y="472" width="14" height="14" rx="3" fill="#252627"><title>2026-01-21: 0</title></rect>
  <rect x="590" y="490" width="14" height="14" rx="3" fill="#252627"><title>2026-01-22: 0</title></rect>
  <rect x="590" y="508" width="14" height="14" rx="3" fill="#252627"><title>2026-01-23: 0</title></rect>
  <rect x="590" y="526" width="14" height="14" rx="3" fill="#252627"><title>2026-01-24: 0</title></rect>
  <rect x="608" y="418" width="14" height="14" rx="3" fill="#252627"><title>2026-01-25: 0</title></rect>
  <rect x="608" y="436" width="14" height="14" rx="3" fill="#252627"><title>2026-01-26: 0</title></rect>
  <rect x="608" y="454" width="14" height="14" rx="3" fill="#252627"><title>2026-01-27: 0</title></rect>
  <rect x="608" y="472" width="14" height="14" rx="3" fill="#252627"><title>2026-01-28: 0</title></rect>
  <rect x="608" y="490" width="14" height="14" rx="3" fill="#252627"><title>2026-01-29: 0</title></rect>
  <rect x="608" y="508" width="14" height="14" rx="3" fill="#252627"><title>2026-01-30: 0</title></rect>
  <rect x="608" y="526" width="14" height="14" rx="3" fill="#252627"><title>2026-01-31: 0</title></rect>
  <rect x="626" y="418" width="14" height="14" rx="3" fill="#252627"><title>2026-02-01: 0</title></rect>
  <rect x="626" y="436" width="14" height="14" rx="3" fill="#252627"><title>2026-02-02: 0</title></rect>
  <rect x="626" y="454" width="14" height="14" rx="3" fill="#252627"><title>2026-02-03: 0</title></rect>
  <rect x="626" y="472" width="14" height="14" rx="3" fill="#252627"><title>2026-02-04: 0</title></rect>
  <rect x="626" y="490" width="14" height="14" rx="3" fill="#252627"><title>2026-02-05: 0</title></rect>
  <rect x="626" y="508" width="14" height="14" rx="3" fill="#252627"><title>2026-02-06: 0</title></rect>
  <rect x="626" y="526" width="14" height="14" rx="3" fill="#252627"><title>2026-02-07: 0</title></rect>
  <rect x="644" y="418" width="14" height="14" rx="3" fill="#252627"><title>2026-02-08: 0</title></rect>
  <rect x="644" y="436" width="14" height="14" rx="3" fill="#252627"><title>2026-02-09: 0</title></rect>
  <rect x="644" y="454" width="14" height="14" rx="3" fill="#252627"><title>2026-02-10: 0</title></rect>
  <rect x="644" y="472" width="14" height="14" rx="3" fill="#252627"><title>2026-02-11: 0</title></rect>
  <rect x="644" y="490" width="14" height="14" rx="3" fill="#252627"><title>2026-02-12: 0</title></rect>
  <rect x="644" y="508" width="14" height="14" rx="3" fill="#252627"><title>2026-02-13: 0</title></rect>
  <rect x="644" y="526" width="14" height="14" rx="3" fill="#252627"><title>2026-02-14: 0</title></rect>
  <rect x="662" y="418" width="14" height="14" rx="3" fill="#252627"><title>2026-02-15: 0</title></rect>
  <rect x="662" y="436" width="14" height="14" rx="3" fill="#252627"><title>2026-02-16: 0</title></rect>
  <rect x="662" y="454" width="14" height="14" rx="3" fill="#252627"><title>2026-02-17: 0</title></rect>
  <rect x="662" y="472" width="14" height="14" rx="3" fill="#252627"><title>2026-02-18: 0</title></rect>
  <rect x="662" y="490" width="14" height="14" rx="3" fill="#252627"><title>2026-02-19: 0</title></rect>
  <rect x="662" y="508" width="14" height="14" rx="3" fill="#252627"><title>2026-02-20: 0</title></rect>
  <rect x="662" y="526" width="14" height="14" rx="3" fill="#252627"><title>2026-02-21: 0</title></rect>
  <rect x="680" y="418" width="14" height="14" rx="3" fill="#252627"><title>2026-02-22: 0</title></rect>
  <rect x="680" y="436" width="14" height="14" rx="3" fill="#252627"><title>2026-02-23: 0</title></rect>
  <rect x="680" y="454" width="14" height="14" rx="3" fill="#252627"><title>2026-02-24: 0</title></rect>
  <rect x="680" y="472" width="14" height="14" rx="3" fill="#252627"><title>2026-02-25: 0</title></rect>
  <rect x="680" y="490" width="14" height="14" rx="3" fill="#252627"><title>2026-02-26: 0</title></rect>
  <rect x="680" y="508" width="14" height="14" rx="3" fill="#252627"><title>2026-02-27: 0</title></rect>
  <rect x="680" y="526" width="14" height="14" rx="3" fill="#252627"><title>2026-02-28: 0</title></rect>
  <rect x="698" y="418" width="14" height="14" rx="3" fill="#252627"><title>2026-03-01: 0</title></rect>
  <rect x="698" y="436" width="14" height="14" rx="3" fill="#252627"><title>2026-03-02: 0</title></rect>
  <rect x="698" y="454" width="14" height="14" rx="3" fill="#252627"><title>2026-03-03: 0</title></rect>
  <rect x="698" y="472" width="14" height="14" rx="3" fill="#252627"><title>2026-03-04: 0</title></rect>
  <rect x="698" y="490" width="14" height="14" rx="3" fill="#252627"><title>2026-03-05: 0</title></rect>
  <rect x="698" y="508" width="14" height="14" rx="3" fill="#252627"><title>2026-03-06: 0</title></rect>
  <rect x="698" y="526" width="14" height="14" rx="3" fill="#252627"><title>2026-03-07: 0</title></rect>
  <rect x="716" y="418" width="14" height="14" rx="3" fill="#252627"><title>2026-03-08: 0</title></rect>
  <rect x="716" y="436" width="14" height="14" rx="3" fill="#252627"><title>2026-03-09: 0</title></rect>
  <rect x="716" y="454" width="14" height="14" rx="3" fill="#252627"><title>2026-03-10: 0</title></rect>
  <rect x="716" y="472" width="14" height="14" rx="3" fill="#252627"><title>2026-03-11: 0</title></rect>
  <rect x="716" y="490" width="14" height="14" rx="3" fill="#252627"><title>2026-03-12: 0</title></rect>
  <rect x="716" y="508" width="14" height="14" rx="3" fill="#252627"><title>2026-03-13: 0</title></rect>
  <rect x="716" y="526" width="14" height="14" rx="3" fill="#252627"><title>2026-03-14: 0</title></rect>
  <rect x="734" y="418" width="14" height="14" rx="3" fill="#252627"><title>2026-03-15: 0</title></rect>
  <rect x="734" y="436" width="14" height="14" rx="3" fill="#252627"><title>2026-03-16: 0</title></rect>
  <rect x="734" y="454" width="14" height="14" rx="3" fill="#252627"><title>2026-03-17: 0</title></rect>
  <rect x="734" y="472" width="14" height="14" rx="3" fill="#252627"><title>2026-03-18: 0</title></rect>
  <rect x="734" y="490" width="14" height="14" rx="3" fill="#252627"><title>2026-03-19: 0</title></rect>
  <rect x="734" y="508" width="14" height="14" rx="3" fill="#252627"><title>2026-03-20: 0</title></rect>
  <rect x="734" y="526" width="14" height="14" rx="3" fill="#252627"><title>2026-03-21: 0</title></rect>
  <rect x="752" y="418" width="14" height="14" rx="3" fill="#252627"><title>2026-03-22: 0</title></rect>
  <rect x="752" y="436" width="14" height="14" rx="3" fill="#252627"><title>2026-03-23: 0</title></rect>
  <rect x="752" y="454" width="14" height="14" rx="3" fill="#252627"><title>2026-03-24: 0</title></rect>
  <rect x="752" y="472" width="14" height="14" rx="3" fill="#252627"><title>2026-03-25: 0</title></rect>
  <rect x="752" y="490" width="14" height="14" rx="3" fill="#252627"><title>2026-03-26: 0</title></rect>
  <rect x="752" y="508" width="14" height="14" rx="3" fill="#252627"><title>2026-03-27: 0</title></rect>
  <rect x="752" y="526" width="14" height="14" rx="3" fill="#252627"><title>2026-03-28: 0</title></rect>
  <rect x="770" y="418" width="14" height="14" rx="3" fill="#252627"><title>2026-03-29: 0</title></rect>
  <rect x="770" y="436" width="14" height="14" rx="3" fill="#252627"><title>2026-03-30: 0</title></rect>
  <rect x="770" y="454" width="14" height="14" rx="3" fill="#252627"><title>2026-03-31: 0</title></rect>
  <rect x="770" y="472" width="14" height="14" rx="3" fill="#252627"><title>2026-04-01: 0</title></rect>
  <rect x="770" y="490" width="14" height="14" rx="3" fill="#252627"><title>2026-04-02: 0</title></rect>
  <rect x="770" y="508" width="14" height="14" rx="3" fill="#252627"><title>2026-04-03: 0</title></rect>
  <rect x="770" y="526" width="14" height="14" rx="3" fill="#252627"><title>2026-04-04: 0</title></rect>
  <rect x="788" y="418" width="14" height="14" rx="3" fill="#252627"><title>2026-04-05: 0</title></rect>
  <rect x="788" y="436" width="14" height="14" rx="3" fill="#252627"><title>2026-04-06: 0</title></rect>
  <rect x="788" y="454" width="14" height="14" rx="3" fill="#252627"><title>2026-04-07: 0</title></rect>
  <rect x="788" y="472" width="14" height="14" rx="3" fill="#252627"><title>2026-04-08: 0</title></rect>
  <rect x="788" y="490" width="14" height="14" rx="3" fill="#252627"><title>2026-04-09: 0</title></rect>
  <rect x="788" y="508" width="14" height="14" rx="3" fill="#252627"><title>2026-04-10: 0</title></rect>
  <rect x="788" y="526" width="14" height="14" rx="3" fill="#252627"><title>2026-04-11: 0</title></rect>
  <rect x="806" y="418" width="14" height="14" rx="3" fill="#252627"><title>2026-04-12: 0</title></rect>
  <rect x="806" y="436" width="14" height="14" rx="3" fill="#252627"><title>2026-04-13: 0</title></rect>
  <rect x="806" y="454" width="14" height="14" rx="3" fill="#252627"><title>2026-04-14: 0</title></rect>
  <rect x="806" y="472" width="14" height="14" rx="3" fill="#252627"><title>2026-04-15: 0</title></rect>
  <rect x="806" y="490" width="14" height="14" rx="3" fill="#252627"><title>2026-04-16: 0</title></rect>
  <rect x="806" y="508" width="14" height="14" rx="3" fill="#252627"><title>2026-04-17: 0</title></rect>
  <rect x="806" y="526" width="14" height="14" rx="3" fill="#252627"><title>2026-04-18: 0</title></rect>
  <rect x="824" y="418" width="14" height="14" rx="3" fill="#252627"><title>2026-04-19: 0</title></rect>
  <rect x="824" y="436" width="14" height="14" rx="3" fill="#252627"><title>2026-04-20: 0</title></rect>
  <rect x="824" y="454" width="14" height="14" rx="3" fill="#252627"><title>2026-04-21: 0</title></rect>
  <rect x="824" y="472" width="14" height="14" rx="3" fill="#252627"><title>2026-04-22: 0</title></rect>
  <rect x="824" y="490" width="14" height="14" rx="3" fill="#252627"><title>2026-04-23: 0</title></rect>
  <rect x="824" y="508" width="14" height="14" rx="3" fill="#252627"><title>2026-04-24: 0</title></rect>
  <rect x="824" y="526" width="14" height="14" rx="3" fill="#252627"><title>2026-04-25: 0</title></rect>
  <rect x="842" y="418" width="14" height="14" rx="3" fill="#252627"><title>2026-04-26: 0</title></rect>
  <rect x="842" y="436" width="14" height="14" rx="3" fill="#252627"><title>2026-04-27: 0</title></rect>
  <rect x="842" y="454" width="14" height="14" rx="3" fill="#252627"><title>2026-04-28: 0</title></rect>
  <rect x="842" y="472" width="14" height="14" rx="3" fill="#252627"><title>2026-04-29: 0</title></rect>
  <rect x="842" y="490" width="14" height="14" rx="3" fill="#252627"><title>2026-04-30: 0</title></rect>
  <rect x="842" y="508" width="14" height="14" rx="3" fill="#252627"><title>2026-05-01: 0</title></rect>
  <rect x="842" y="526" width="14" height="14" rx="3" fill="#252627"><title>2026-05-02: 0</title></rect>
  <rect x="860" y="418" width="14" height="14" rx="3" fill="#252627"><title>2026-05-03: 0</title></rect>
  <rect x="860" y="436" width="14" height="14" rx="3" fill="#252627"><title>2026-05-04: 0</title></rect>
  <rect x="860" y="454" width="14" height="14" rx="3" fill="#252627"><title>2026-05-05: 0</title></rect>
  <rect x="860" y="472" width="14" height="14" rx="3" fill="#252627"><title>2026-05-06: 0</title></rect>
  <rect x="860" y="490" width="14" height="14" rx="3" fill="#252627"><title>2026-05-07: 0</title></rect>
  <rect x="860" y="508" width="14" height="14" rx="3" fill="#252627"><title>2026-05-08: 0</title></rect>
  <rect x="860" y="526" width="14" height="14" rx="3" fill="#252627"><title>2026-05-09: 0</title></rect>
  <rect x="878" y="418" width="14" height="14" rx="3" fill="#252627"><title>2026-05-10: 0</title></rect>
  <rect x="878" y="436" width="14" height="14" rx="3" fill="#252627"><title>2026-05-11: 0</title></rect>
  <rect x="878" y="454" width="14" height="14" rx="3" fill="#252627"><title>2026-05-12: 0</title></rect>
  <rect x="878" y="472" width="14" height="14" rx="3" fill="#252627"><title>2026-05-13: 0</title></rect>
  <rect x="878" y="490" width="14" height="14" rx="3" fill="#252627"><title>2026-05-14: 0</title></rect>
  <rect x="878" y="508" width="14" height="14" rx="3" fill="#252627"><title>2026-05-15: 0</title></rect>
  <rect x="878" y="526" width="14" height="14" rx="3" fill="#252627"><title>2026-05-16: 0</title></rect>
  <rect x="896" y="418" width="14" height="14" rx="3" fill="#252627"><title>2026-05-17: 0</title></rect>
  <rect x="896" y="436" width="14" height="14" rx="3" fill="#252627"><title>2026-05-18: 0</title></rect>
  <rect x="896" y="454" width="14" height="14" rx="3" fill="#252627"><title>2026-05-19: 0</title></rect>
  <rect x="896" y="472" width="14" height="14" rx="3" fill="#252627"><title>2026-05-20: 0</title></rect>
  <rect x="896" y="490" width="14" height="14" rx="3" fill="#252627"><title>2026-05-21: 0</title></rect>
  <rect x="896" y="508" width="14" height="14" rx="3" fill="#252627"><title>2026-05-22: 0</title></rect>
  <rect x="896" y="526" width="14" height="14" rx="3" fill="#252627"><title>2026-05-23: 0</title></rect>
  <rect x="914" y="418" width="14" height="14" rx="3" fill="#252627"><title>2026-05-24: 0</title></rect>
  <rect x="914" y="436" width="14" height="14" rx="3" fill="#252627"><title>2026-05-25: 0</title></rect>
  <rect x="914" y="454" width="14" height="14" rx="3" fill="#252627"><title>2026-05-26: 0</title></rect>
  <rect x="914" y="472" width="14" height="14" rx="3" fill="#252627"><title>2026-05-27: 0</title></rect>
  <rect x="914" y="490" width="14" height="14" rx="3" fill="#252627"><title>2026-05-28: 0</title></rect>
  <rect x="914" y="508" width="14" height="14" rx="3" fill="#252627"><title>2026-05-29: 0</title></rect>
  <rect x="914" y="526" width="14" height="14" rx="3" fill="#252627"><title>2026-05-30: 0</title></rect>
  <rect x="932" y="418" width="14" height="14" rx="3" fill="#252627"><title>2026-05-31: 0</title></rect>
  <rect x="932" y="436" width="14" height="14" rx="3" fill="#252627"><title>2026-06-01: 0</title></rect>
  <rect x="932" y="454" width="14" height="14" rx="3" fill="#252627"><title>2026-06-02: 0</title></rect>
  <rect x="932" y="472" width="14" height="14" rx="3" fill="#252627"><title>2026-06-03: 0</title></rect>
  <rect x="932" y="490" width="14" height="14" rx="3" fill="#252627"><title>2026-06-04: 0</title></rect>
  <rect x="932" y="508" width="14" height="14" rx="3" fill="#252627"><title>2026-06-05: 0</title></rect>
  <rect x="932" y="526" width="14" height="14" rx="3" fill="#252627"><title>2026-06-06: 0</title></rect>
  <rect x="950" y="418" width="14" height="14" rx="3" fill="#252627"><title>2026-06-07: 0</title></rect>
  <rect x="950" y="436" width="14" height="14" rx="3" fill="#252627"><title>2026-06-08: 0</title></rect>
  <rect x="950" y="454" width="14" height="14" rx="3" fill="#252627"><title>2026-06-09: 0</title></rect>
  <rect x="950" y="472" width="14" height="14" rx="3" fill="#252627"><title>2026-06-10: 0</title></rect>
  <rect x="950" y="490" width="14" height="14" rx="3" fill="#252627"><title>2026-06-11: 0</title></rect>
  <rect x="950" y="508" width="14" height="14" rx="3" fill="#252627"><title>2026-06-12: 0</title></rect>
  <rect x="950" y="526" width="14" height="14" rx="3" fill="#252627"><title>2026-06-13: 0</title></rect>
  <rect x="968" y="418" width="14" height="14" rx="3" fill="#252627"><title>2026-06-14: 0</title></rect>
  <rect x="968" y="436" width="14" height="14" rx="3" fill="#252627"><title>2026-06-15: 0</title></rect>
  <rect x="968" y="454" width="14" height="14" rx="3" fill="#252627"><title>2026-06-16: 0</title></rect>
  <rect x="968" y="472" width="14" height="14" rx="3" fill="#252627"><title>2026-06-17: 0</title></rect>
  <rect x="968" y="490" width="14" height="14" rx="3" fill="#252627"><title>2026-06-18: 0</title></rect>
  <rect x="968" y="508" width="14" height="14" rx="3" fill="#252627"><title>2026-06-19: 0</title></rect>
  <rect x="968" y="526" width="14" height="14" rx="3" fill="#252627"><title>2026-06-20: 0</title></rect>
  <rect x="986" y="418" width="14" height="14" rx="3" fill="#252627"><title>2026-06-21: 0</title></rect>
  <rect x="986" y="436" width="14" height="14" rx="3" fill="#252627"><title>2026-06-22: 0</title></rect>
  <rect x="986" y="454" width="14" height="14" rx="3" fill="#252627"><title>2026-06-23: 0</title></rect>
  <rect x="986" y="472" width="14" height="14" rx="3" fill="#252627"><title>2026-06-24: 0</title></rect>
  <rect x="986" y="490" width="14" height="14" rx="3" fill="#252627"><title>2026-06-25: 0</title></rect>
  <rect x="986" y="508" width="14" height="14" rx="3" fill="#252627"><title>2026-06-26: 0</title></rect>
  <rect x="986" y="526" width="14" height="14" rx="3" fill="#252627"><title>2026-06-27: 0</title></rect>
  <rect x="1004" y="418" width="14" height="14" rx="3" fill="#252627"><title>2026-06-28: 0</title></rect>
  <rect x="1004" y="436" width="14" height="14" rx="3" fill="#252627"><title>2026-06-29: 0</title></rect>
  <rect x="1004" y="454" width="14" height="14" rx="3" fill="#252627"><title>2026-06-30: 0</title></rect>
  <rect x="1004" y="472" width="14" height="14" rx="3" fill="#252627"><title>2026-07-01: 0</title></rect>
  <rect x="1004" y="490" width="14" height="14" rx="3" fill="#252627"><title>2026-07-02: 0</title></rect>
  <rect x="1004" y="508" width="14" height="14" rx="3" fill="#252627"><title>2026-07-03: 0</title></rect>
  <rect x="1004" y="526" width="14" height="14" rx="3" fill="#252627"><title>2026-07-04: 0</title></rect>
  <rect x="1022" y="418" width="14" height="14" rx="3" fill="#252627"><title>2026-07-05: 0</title></rect>
  <rect x="1022" y="436" width="14" height="14" rx="3" fill="#252627"><title>2026-07-06: 0</title></rect>
  <rect x="1022" y="454" width="14" height="14" rx="3" fill="#8ccbff"><title>2026-07-07: 1159.3만</title></rect>
  <rect x="1022" y="472" width="14" height="14" rx="3" fill="#2f5b75"><title>2026-07-08: 430.1만</title></rect>
  <rect x="1022" y="490" width="14" height="14" rx="3" fill="#252627"><title>2026-07-09: 0</title></rect>
  <rect x="1022" y="508" width="14" height="14" rx="3" fill="#252627"><title>2026-07-10: 0</title></rect>
  <rect x="1022" y="526" width="14" height="14" rx="3" fill="#252627"><title>2026-07-11: 0</title></rect>
  <rect x="1040" y="418" width="14" height="14" rx="3" fill="#252627"><title>2026-07-12: 0</title></rect>
  <text x="104" y="580" class="caption">8월</text>
  <text x="182" y="580" class="caption">9월</text>
  <text x="260" y="580" class="caption">10월</text>
  <text x="338" y="580" class="caption">11월</text>
  <text x="416" y="580" class="caption">12월</text>
  <text x="494" y="580" class="caption">1월</text>
  <text x="572" y="580" class="caption">2월</text>
  <text x="650" y="580" class="caption">3월</text>
  <text x="728" y="580" class="caption">4월</text>
  <text x="806" y="580" class="caption">5월</text>
  <text x="884" y="580" class="caption">6월</text>
  <text x="962" y="580" class="caption">7월</text>

  <g transform="translate(104 626)">
    <rect x="0" y="0" width="144" height="48" rx="12" fill="#15181b" stroke="#2b2f34"/>
    <text x="16" y="20" class="caption">툴 호출</text>
    <text x="16" y="38" class="value">199회</text>
  <rect x="164" y="0" width="144" height="48" rx="12" fill="#15181b" stroke="#2b2f34"/>
    <text x="180" y="20" class="caption">최고 일간 토큰</text>
    <text x="180" y="38" class="value">1159.3만</text>
  <rect x="328" y="0" width="144" height="48" rx="12" fill="#15181b" stroke="#2b2f34"/>
    <text x="344" y="20" class="caption">로컬 기준</text>
    <text x="344" y="38" class="value">2026-07-07</text>
  </g>

  <text x="654" y="627" class="label">가장 많이 사용한 툴</text>
  <circle cx="662" cy="653" r="8" fill="#ffd158"/><text x="682" y="659" class="tool">shell-command</text><text x="1016" y="659" text-anchor="end" class="small">197회 실행</text>
  <circle cx="662" cy="684" r="8" fill="#59d5dc"/><text x="682" y="690" class="tool">js</text><text x="1016" y="690" text-anchor="end" class="small">1회 실행</text>
  <circle cx="662" cy="715" r="8" fill="#ff9564"/><text x="682" y="721" class="tool">request-user-input</text><text x="1016" y="721" text-anchor="end" class="small">1회 실행</text>
</svg>
